Coordinates
version=1
nRows=10
nColumns=38
inDegrees=yes

Units are S.I. units (second, meters, Newtons, ...)
Angles are in degrees.

endheader
time	pelvis_tilt	pelvis_list	pelvis_rotation	pelvis_tx	pelvis_ty	pelvis_tz	hip_flexion_r	hip_adduction_r	hip_rotation_r	knee_angle_r	ankle_angle_r	subtalar_angle_r	mtp_angle_r	hip_flexion_l	hip_adduction_l	hip_rotation_l	knee_angle_l	ankle_angle_l	subtalar_angle_l	mtp_angle_l	lumbar_extension	lumbar_bending	lumbar_rotation	arm_flex_r	arm_add_r	arm_rot_r	elbow_flex_r	pro_sup_r	wrist_flex_r	wrist_dev_r	arm_flex_l	arm_add_l	arm_rot_l	elbow_flex_l	pro_sup_l	wrist_flex_l	wrist_dev_l
      1.69000000	      2.04776008	     -4.98285837	      1.64187272	      0.35928560	      0.98459230	     -0.23362365	     -3.71742375	     10.45484782	     -4.44044582	     -6.52156679	      5.63129986	      0.00000000	      0.00000000	     25.17198823	    -10.17059445	     -9.51984276	    -51.69470128	      6.54166194	      0.00000000	      0.00000000	    -12.49171227	      5.21122984	      2.12221991	      1.00013680	    -14.63896573	     28.69864494	     45.73374795	     42.79599322	      0.00000000	      0.00000000	     -2.97061942	     -9.31481759	     35.94739694	     32.96892601	     42.79599322	      0.00000000	      0.00000000
      1.70000000	      2.01928207	     -4.86077520	      0.85248542	      0.37165930	      0.98311319	     -0.23285130	     -4.22282096	     10.32031531	     -3.99435832	     -7.14686530	      6.77513006	      0.00000000	      0.00000000	     25.62034532	     -9.95838345	    -10.52331660	    -48.78072470	      6.58288164	      0.00000000	      0.00000000	    -12.64461409	      4.98101400	      3.00580017	      0.33207293	    -14.94640187	     24.57380923	     50.84524412	     43.08079122	      0.00000000	      0.00000000	     -3.52933599	     -9.18310748	     36.08718234	     32.07126359	     43.08079122	      0.00000000	      0.00000000
      1.71000000	      2.04329645	     -4.84097994	      0.31149510	      0.38405718	      0.98153033	     -0.23229434	     -4.84696388	     10.31845230	     -3.71437441	     -7.59018675	      7.73141554	      0.00000000	      0.00000000	     26.00334342	     -9.69397755	    -11.15589013	    -45.67829298	      6.53462475	      0.00000000	      0.00000000	    -12.82863599	      4.88155350	      3.48227859	      1.30920384	    -15.19585258	     24.32523643	     51.59209085	     43.11042306	      0.00000000	      0.00000000	     -4.31207178	     -9.25700560	     36.15103800	     31.86541677	     43.11042306	      0.00000000	      0.00000000
      1.72000000	      2.13126916	     -4.74170198	     -0.30230605	      0.39646410	      0.97982855	     -0.23181882	     -5.58650610	     10.18926714	     -3.10166945	     -8.03020515	      8.95798707	      0.00000000	      0.00000000	     26.04929801	     -9.19283027	    -11.43103526	    -42.15279811	      6.51129841	      0.00000000	      0.00000000	    -13.11125841	      4.68821367	      4.07474844	      2.07194347	    -15.59269033	     24.06771346	     52.95697423	     43.15030647	      0.00000000	      0.00000000	     -4.97166351	     -9.28973299	     36.16760996	     31.60520926	     43.15030647	      0.00000000	      0.00000000
      1.73000000	      2.11132175	     -4.85043225	     -0.67249022	      0.40876150	      0.97772349	     -0.23143028	     -6.15640349	     10.31077315	     -2.87332326	     -8.60458824	      9.98926213	      0.00000000	      0.00000000	     26.57429041	     -9.07974041	    -12.18919265	    -39.05017498	      5.63680283	      0.00000000	      0.00000000	    -13.26868436	      4.75773170	      4.35673924	      3.07619270	    -15.84135856	     23.81635506	     53.83811394	     43.16860591	      0.00000000	      0.00000000	     -5.75452059	     -9.34787867	     36.17326407	     31.33066699	     43.16860591	      0.00000000	      0.00000000
      1.74000000	      1.99184600	     -5.03134606	     -1.04768101	      0.42098573	      0.97534586	     -0.23110379	     -6.68757935	     10.47088583	     -2.33271869	     -9.05557336	     11.00425085	      0.00000000	      0.00000000	     26.84513726	     -8.70881907	    -11.79531614	    -35.39930768	      5.04991545	      0.00000000	      0.00000000	    -13.34456750	      4.87972420	      4.76455326	      3.92156473	    -16.14257873	     23.61279709	     54.52515875	     43.18003073	      0.00000000	      0.00000000	     -6.36829423	     -9.34464268	     36.17925113	     31.15678852	     43.18003073	      0.00000000	      0.00000000
      1.75000000	      2.46571287	     -4.63774694	     -1.53318411	      0.43385920	      0.97387129	     -0.23132084	     -7.96170130	      9.92812236	     -1.67024661	     -9.34598175	     12.35141613	      0.00000000	      0.00000000	     26.27113872	     -7.93205137	    -12.39608146	    -31.63152696	      4.05591734	      0.00000000	      0.00000000	    -14.03770304	      4.42011916	      5.21859419	      3.87973618	    -16.74144551	     22.59403179	     58.38665343	     43.28800246	      0.00000000	      0.00000000	     -6.80146770	     -9.22575822	     36.00421178	     30.43444957	     43.28800246	      0.00000000	      0.00000000
      1.76000000	      2.44888493	     -4.69271524	     -1.75325130	      0.44642141	      0.97153090	     -0.23144681	     -8.65259675	      9.92516238	     -1.32361865	     -9.70611126	     13.29043119	      0.00000000	      0.00000000	     26.36820428	     -7.48284222	    -12.25286516	    -28.06098491	      3.32455141	      0.00000000	      0.00000000	    -14.18395003	      4.47694728	      5.34335897	      4.73517180	    -16.78188118	     22.23304819	     59.21612466	     43.31031689	      0.00000000	      0.00000000	     -7.45111934	     -9.22798889	     36.02598738	     30.21495117	     43.31031689	      0.00000000	      0.00000000
      1.77000000	      2.23532231	     -4.97370266	     -1.92868869	      0.45897820	      0.96890382	     -0.23161715	     -9.29989238	     10.16756502	     -0.98303381	     -9.72557996	     13.76553999	      0.00000000	      0.00000000	     26.66675335	     -7.26652887	    -11.79600219	    -24.61467025	      2.99935586	      0.00000000	      0.00000000	    -14.08941998	      4.78062075	      5.65017764	      5.50108157	    -17.03683639	     22.03466412	     59.64695099	     43.31807925	      0.00000000	      0.00000000	     -7.89252728	     -9.24012777	     36.02840683	     30.10245097	     43.31807925	      0.00000000	      0.00000000
      1.78000000	      2.92853828	     -4.71029762	     -2.10180898	      0.47232168	      0.96774428	     -0.23221975	    -11.06425839	      9.73777007	     -0.76627737	     -9.45022256	     14.60042566	      0.00000000	      0.00000000	     25.71921896	     -6.53984148	    -11.84705244	    -21.04300329	      2.82480184	      0.00000000	      0.00000000	    -14.96072495	      4.46827414	      5.78105739	      5.79171239	    -17.32663366	     21.52965154	     62.11926761	     43.37463210	      0.00000000	      0.00000000	     -8.25690166	     -9.10932533	     35.86889296	     29.46839858	     43.37463210	      0.00000000	      0.00000000
